# Tiled2Unity generated file. Do not modify by hand.
# Wavefront file for 'arena_mesh_0002.obj'

# Vertices (Count = 644)
v -5.777778 -0.4444444 0
v -6.222222 -0.4444444 0
v -6.222222 0 0
v -5.777778 0 0
v -6.222222 -0.4444444 0
v -6.666667 -0.4444444 0
v -6.666667 0 0
v -6.222222 0 0
v -6.666667 -0.4444444 0
v -7.111111 -0.4444444 0
v -7.111111 0 0
v -6.666667 0 0
v -11.11111 -0.4444444 0
v -11.55556 -0.4444444 0
v -11.55556 0 0
v -11.11111 0 0
v -11.55556 -0.4444444 0
v -12 -0.4444444 0
v -12 0 0
v -11.55556 0 0
v -12 -0.4444444 0
v -12.44444 -0.4444444 0
v -12.44444 0 0
v -12 0 0
v -5.777778 -0.8888889 0
v -6.222222 -0.8888889 0
v -6.222222 -0.4444444 0
v -5.777778 -0.4444444 0
v -6.222222 -0.8888889 0
v -6.666667 -0.8888889 0
v -6.666667 -0.4444444 0
v -6.222222 -0.4444444 0
v -6.666667 -0.8888889 0
v -7.111111 -0.8888889 0
v -7.111111 -0.4444444 0
v -6.666667 -0.4444444 0
v -11.11111 -0.8888889 0
v -11.55556 -0.8888889 0
v -11.55556 -0.4444444 0
v -11.11111 -0.4444444 0
v -11.55556 -0.8888889 0
v -12 -0.8888889 0
v -12 -0.4444444 0
v -11.55556 -0.4444444 0
v -12 -0.8888889 0
v -12.44444 -0.8888889 0
v -12.44444 -0.4444444 0
v -12 -0.4444444 0
v -5.777778 -1.333333 0
v -6.222222 -1.333333 0
v -6.222222 -0.8888889 0
v -5.777778 -0.8888889 0
v -6.222222 -1.333333 0
v -6.666667 -1.333333 0
v -6.666667 -0.8888889 0
v -6.222222 -0.8888889 0
v -6.666667 -1.333333 0
v -7.111111 -1.333333 0
v -7.111111 -0.8888889 0
v -6.666667 -0.8888889 0
v -8.888889 -1.333333 0
v -9.333333 -1.333333 0
v -9.333333 -0.8888889 0
v -8.888889 -0.8888889 0
v -11.11111 -1.333333 0
v -11.55556 -1.333333 0
v -11.55556 -0.8888889 0
v -11.11111 -0.8888889 0
v -11.55556 -1.333333 0
v -12 -1.333333 0
v -12 -0.8888889 0
v -11.55556 -0.8888889 0
v -12 -1.333333 0
v -12.44444 -1.333333 0
v -12.44444 -0.8888889 0
v -12 -0.8888889 0
v 0 -1.777778 0
v -0.4444444 -1.777778 0
v -0.4444444 -1.333333 0
v 0 -1.333333 0
v -0.4444444 -1.777778 0
v -0.8888889 -1.777778 0
v -0.8888889 -1.333333 0
v -0.4444444 -1.333333 0
v -0.8888889 -1.777778 0
v -1.333333 -1.777778 0
v -1.333333 -1.333333 0
v -0.8888889 -1.333333 0
v -1.333333 -1.777778 0
v -1.777778 -1.777778 0
v -1.777778 -1.333333 0
v -1.333333 -1.333333 0
v -1.777778 -1.777778 0
v -2.222222 -1.777778 0
v -2.222222 -1.333333 0
v -1.777778 -1.333333 0
v -2.222222 -1.777778 0
v -2.666667 -1.777778 0
v -2.666667 -1.333333 0
v -2.222222 -1.333333 0
v -2.666667 -1.777778 0
v -3.111111 -1.777778 0
v -3.111111 -1.333333 0
v -2.666667 -1.333333 0
v -3.111111 -1.777778 0
v -3.555556 -1.777778 0
v -3.555556 -1.333333 0
v -3.111111 -1.333333 0
v -3.555556 -1.777778 0
v -4 -1.777778 0
v -4 -1.333333 0
v -3.555556 -1.333333 0
v -4 -1.777778 0
v -4.444445 -1.777778 0
v -4.444445 -1.333333 0
v -4 -1.333333 0
v -4.444445 -1.777778 0
v -4.888889 -1.777778 0
v -4.888889 -1.333333 0
v -4.444445 -1.333333 0
v -4.888889 -1.777778 0
v -5.333333 -1.777778 0
v -5.333333 -1.333333 0
v -4.888889 -1.333333 0
v -5.333333 -1.777778 0
v -5.777778 -1.777778 0
v -5.777778 -1.333333 0
v -5.333333 -1.333333 0
v -5.777778 -1.777778 0
v -6.222222 -1.777778 0
v -6.222222 -1.333333 0
v -5.777778 -1.333333 0
v -6.222222 -1.777778 0
v -6.666667 -1.777778 0
v -6.666667 -1.333333 0
v -6.222222 -1.333333 0
v -6.666667 -1.777778 0
v -7.111111 -1.777778 0
v -7.111111 -1.333333 0
v -6.666667 -1.333333 0
v -7.111111 -1.777778 0
v -7.555556 -1.777778 0
v -7.555556 -1.333333 0
v -7.111111 -1.333333 0
v -7.555556 -1.777778 0
v -8 -1.777778 0
v -8 -1.333333 0
v -7.555556 -1.333333 0
v -8 -1.777778 0
v -8.444445 -1.777778 0
v -8.444445 -1.333333 0
v -8 -1.333333 0
v -8.444445 -1.777778 0
v -8.888889 -1.777778 0
v -8.888889 -1.333333 0
v -8.444445 -1.333333 0
v -8.888889 -1.777778 0
v -9.333333 -1.777778 0
v -9.333333 -1.333333 0
v -8.888889 -1.333333 0
v -9.333333 -1.777778 0
v -9.777778 -1.777778 0
v -9.777778 -1.333333 0
v -9.333333 -1.333333 0
v -9.777778 -1.777778 0
v -10.22222 -1.777778 0
v -10.22222 -1.333333 0
v -9.777778 -1.333333 0
v -10.22222 -1.777778 0
v -10.66667 -1.777778 0
v -10.66667 -1.333333 0
v -10.22222 -1.333333 0
v -10.66667 -1.777778 0
v -11.11111 -1.777778 0
v -11.11111 -1.333333 0
v -10.66667 -1.333333 0
v -11.11111 -1.777778 0
v -11.55556 -1.777778 0
v -11.55556 -1.333333 0
v -11.11111 -1.333333 0
v -11.55556 -1.777778 0
v -12 -1.777778 0
v -12 -1.333333 0
v -11.55556 -1.333333 0
v -12 -1.777778 0
v -12.44444 -1.777778 0
v -12.44444 -1.333333 0
v -12 -1.333333 0
v -12.44444 -1.777778 0
v -12.88889 -1.777778 0
v -12.88889 -1.333333 0
v -12.44444 -1.333333 0
v -12.88889 -1.777778 0
v -13.33333 -1.777778 0
v -13.33333 -1.333333 0
v -12.88889 -1.333333 0
v -13.33333 -1.777778 0
v -13.77778 -1.777778 0
v -13.77778 -1.333333 0
v -13.33333 -1.333333 0
v -13.77778 -1.777778 0
v -14.22222 -1.777778 0
v -14.22222 -1.333333 0
v -13.77778 -1.333333 0
v -14.22222 -1.777778 0
v -14.66667 -1.777778 0
v -14.66667 -1.333333 0
v -14.22222 -1.333333 0
v -14.66667 -1.777778 0
v -15.11111 -1.777778 0
v -15.11111 -1.333333 0
v -14.66667 -1.333333 0
v -15.11111 -1.777778 0
v -15.55556 -1.777778 0
v -15.55556 -1.333333 0
v -15.11111 -1.333333 0
v -15.55556 -1.777778 0
v -16 -1.777778 0
v -16 -1.333333 0
v -15.55556 -1.333333 0
v -16 -1.777778 0
v -16.44444 -1.777778 0
v -16.44444 -1.333333 0
v -16 -1.333333 0
v -16.44444 -1.777778 0
v -16.88889 -1.777778 0
v -16.88889 -1.333333 0
v -16.44444 -1.333333 0
v -16.88889 -1.777778 0
v -17.33333 -1.777778 0
v -17.33333 -1.333333 0
v -16.88889 -1.333333 0
v -17.33333 -1.777778 0
v -17.77778 -1.777778 0
v -17.77778 -1.333333 0
v -17.33333 -1.333333 0
v 0 -2.222222 0
v -0.4444444 -2.222222 0
v -0.4444444 -1.777778 0
v 0 -1.777778 0
v -0.4444444 -2.222222 0
v -0.8888889 -2.222222 0
v -0.8888889 -1.777778 0
v -0.4444444 -1.777778 0
v -0.8888889 -2.222222 0
v -1.333333 -2.222222 0
v -1.333333 -1.777778 0
v -0.8888889 -1.777778 0
v -4.888889 -2.222222 0
v -5.333333 -2.222222 0
v -5.333333 -1.777778 0
v -4.888889 -1.777778 0
v -5.333333 -2.222222 0
v -5.777778 -2.222222 0
v -5.777778 -1.777778 0
v -5.333333 -1.777778 0
v -5.777778 -2.222222 0
v -6.222222 -2.222222 0
v -6.222222 -1.777778 0
v -5.777778 -1.777778 0
v -6.222222 -2.222222 0
v -6.666667 -2.222222 0
v -6.666667 -1.777778 0
v -6.222222 -1.777778 0
v -6.666667 -2.222222 0
v -7.111111 -2.222222 0
v -7.111111 -1.777778 0
v -6.666667 -1.777778 0
v -7.111111 -2.222222 0
v -7.555556 -2.222222 0
v -7.555556 -1.777778 0
v -7.111111 -1.777778 0
v -7.555556 -2.222222 0
v -8 -2.222222 0
v -8 -1.777778 0
v -7.555556 -1.777778 0
v -10.22222 -2.222222 0
v -10.66667 -2.222222 0
v -10.66667 -1.777778 0
v -10.22222 -1.777778 0
v -10.66667 -2.222222 0
v -11.11111 -2.222222 0
v -11.11111 -1.777778 0
v -10.66667 -1.777778 0
v -11.11111 -2.222222 0
v -11.55556 -2.222222 0
v -11.55556 -1.777778 0
v -11.11111 -1.777778 0
v -11.55556 -2.222222 0
v -12 -2.222222 0
v -12 -1.777778 0
v -11.55556 -1.777778 0
v -12 -2.222222 0
v -12.44444 -2.222222 0
v -12.44444 -1.777778 0
v -12 -1.777778 0
v -12.44444 -2.222222 0
v -12.88889 -2.222222 0
v -12.88889 -1.777778 0
v -12.44444 -1.777778 0
v -12.88889 -2.222222 0
v -13.33333 -2.222222 0
v -13.33333 -1.777778 0
v -12.88889 -1.777778 0
v -16.88889 -2.222222 0
v -17.33333 -2.222222 0
v -17.33333 -1.777778 0
v -16.88889 -1.777778 0
v -17.33333 -2.222222 0
v -17.77778 -2.222222 0
v -17.77778 -1.777778 0
v -17.33333 -1.777778 0
v 0 -2.666667 0
v -0.4444444 -2.666667 0
v -0.4444444 -2.222222 0
v 0 -2.222222 0
v -0.4444444 -2.666667 0
v -0.8888889 -2.666667 0
v -0.8888889 -2.222222 0
v -0.4444444 -2.222222 0
v -0.8888889 -2.666667 0
v -1.333333 -2.666667 0
v -1.333333 -2.222222 0
v -0.8888889 -2.222222 0
v -16.88889 -2.666667 0
v -17.33333 -2.666667 0
v -17.33333 -2.222222 0
v -16.88889 -2.222222 0
v -17.33333 -2.666667 0
v -17.77778 -2.666667 0
v -17.77778 -2.222222 0
v -17.33333 -2.222222 0
v 0 -3.111111 0
v -0.4444444 -3.111111 0
v -0.4444444 -2.666667 0
v 0 -2.666667 0
v -17.33333 -3.111111 0
v -17.77778 -3.111111 0
v -17.77778 -2.666667 0
v -17.33333 -2.666667 0
v 0 -3.555556 0
v -0.4444444 -3.555556 0
v -0.4444444 -3.111111 0
v 0 -3.111111 0
v -17.33333 -3.555556 0
v -17.77778 -3.555556 0
v -17.77778 -3.111111 0
v -17.33333 -3.111111 0
v 0 -4 0
v -0.4444444 -4 0
v -0.4444444 -3.555556 0
v 0 -3.555556 0
v -17.33333 -4 0
v -17.77778 -4 0
v -17.77778 -3.555556 0
v -17.33333 -3.555556 0
v 0 -4.444445 0
v -0.4444444 -4.444445 0
v -0.4444444 -4 0
v 0 -4 0
v -17.33333 -4.444445 0
v -17.77778 -4.444445 0
v -17.77778 -4 0
v -17.33333 -4 0
v 0 -4.888889 0
v -0.4444444 -4.888889 0
v -0.4444444 -4.444445 0
v 0 -4.444445 0
v -17.33333 -4.888889 0
v -17.77778 -4.888889 0
v -17.77778 -4.444445 0
v -17.33333 -4.444445 0
v 0 -5.333333 0
v -0.4444444 -5.333333 0
v -0.4444444 -4.888889 0
v 0 -4.888889 0
v -17.33333 -5.333333 0
v -17.77778 -5.333333 0
v -17.77778 -4.888889 0
v -17.33333 -4.888889 0
v 0 -5.777778 0
v -0.4444444 -5.777778 0
v -0.4444444 -5.333333 0
v 0 -5.333333 0
v -17.33333 -5.777778 0
v -17.77778 -5.777778 0
v -17.77778 -5.333333 0
v -17.33333 -5.333333 0
v 0 -6.222222 0
v -0.4444444 -6.222222 0
v -0.4444444 -5.777778 0
v 0 -5.777778 0
v -17.33333 -6.222222 0
v -17.77778 -6.222222 0
v -17.77778 -5.777778 0
v -17.33333 -5.777778 0
v 0 -6.666667 0
v -0.4444444 -6.666667 0
v -0.4444444 -6.222222 0
v 0 -6.222222 0
v -17.33333 -6.666667 0
v -17.77778 -6.666667 0
v -17.77778 -6.222222 0
v -17.33333 -6.222222 0
v 0 -7.111111 0
v -0.4444444 -7.111111 0
v -0.4444444 -6.666667 0
v 0 -6.666667 0
v -17.33333 -7.111111 0
v -17.77778 -7.111111 0
v -17.77778 -6.666667 0
v -17.33333 -6.666667 0
v 0 -7.555556 0
v -0.4444444 -7.555556 0
v -0.4444444 -7.111111 0
v 0 -7.111111 0
v -17.33333 -7.555556 0
v -17.77778 -7.555556 0
v -17.77778 -7.111111 0
v -17.33333 -7.111111 0
v 0 -8 0
v -0.4444444 -8 0
v -0.4444444 -7.555556 0
v 0 -7.555556 0
v -17.33333 -8 0
v -17.77778 -8 0
v -17.77778 -7.555556 0
v -17.33333 -7.555556 0
v 0 -8.444445 0
v -0.4444444 -8.444445 0
v -0.4444444 -8 0
v 0 -8 0
v -17.33333 -8.444445 0
v -17.77778 -8.444445 0
v -17.77778 -8 0
v -17.33333 -8 0
v 0 -8.888889 0
v -0.4444444 -8.888889 0
v -0.4444444 -8.444445 0
v 0 -8.444445 0
v -17.33333 -8.888889 0
v -17.77778 -8.888889 0
v -17.77778 -8.444445 0
v -17.33333 -8.444445 0
v 0 -9.333333 0
v -0.4444444 -9.333333 0
v -0.4444444 -8.888889 0
v 0 -8.888889 0
v -0.4444444 -9.333333 0
v -0.8888889 -9.333333 0
v -0.8888889 -8.888889 0
v -0.4444444 -8.888889 0
v -16.44444 -9.333333 0
v -16.88889 -9.333333 0
v -16.88889 -8.888889 0
v -16.44444 -8.888889 0
v -16.88889 -9.333333 0
v -17.33333 -9.333333 0
v -17.33333 -8.888889 0
v -16.88889 -8.888889 0
v -17.33333 -9.333333 0
v -17.77778 -9.333333 0
v -17.77778 -8.888889 0
v -17.33333 -8.888889 0
v 0 -9.777778 0
v -0.4444444 -9.777778 0
v -0.4444444 -9.333333 0
v 0 -9.333333 0
v -0.4444444 -9.777778 0
v -0.8888889 -9.777778 0
v -0.8888889 -9.333333 0
v -0.4444444 -9.333333 0
v -16.44444 -9.777778 0
v -16.88889 -9.777778 0
v -16.88889 -9.333333 0
v -16.44444 -9.333333 0
v -16.88889 -9.777778 0
v -17.33333 -9.777778 0
v -17.33333 -9.333333 0
v -16.88889 -9.333333 0
v -17.33333 -9.777778 0
v -17.77778 -9.777778 0
v -17.77778 -9.333333 0
v -17.33333 -9.333333 0
v 0 -10.22222 0
v -0.4444444 -10.22222 0
v -0.4444444 -9.777778 0
v 0 -9.777778 0
v -0.4444444 -10.22222 0
v -0.8888889 -10.22222 0
v -0.8888889 -9.777778 0
v -0.4444444 -9.777778 0
v -0.8888889 -10.22222 0
v -1.333333 -10.22222 0
v -1.333333 -9.777778 0
v -0.8888889 -9.777778 0
v -1.333333 -10.22222 0
v -1.777778 -10.22222 0
v -1.777778 -9.777778 0
v -1.333333 -9.777778 0
v -1.777778 -10.22222 0
v -2.222222 -10.22222 0
v -2.222222 -9.777778 0
v -1.777778 -9.777778 0
v -2.222222 -10.22222 0
v -2.666667 -10.22222 0
v -2.666667 -9.777778 0
v -2.222222 -9.777778 0
v -2.666667 -10.22222 0
v -3.111111 -10.22222 0
v -3.111111 -9.777778 0
v -2.666667 -9.777778 0
v -3.111111 -10.22222 0
v -3.555556 -10.22222 0
v -3.555556 -9.777778 0
v -3.111111 -9.777778 0
v -3.555556 -10.22222 0
v -4 -10.22222 0
v -4 -9.777778 0
v -3.555556 -9.777778 0
v -4 -10.22222 0
v -4.444445 -10.22222 0
v -4.444445 -9.777778 0
v -4 -9.777778 0
v -4.444445 -10.22222 0
v -4.888889 -10.22222 0
v -4.888889 -9.777778 0
v -4.444445 -9.777778 0
v -4.888889 -10.22222 0
v -5.333333 -10.22222 0
v -5.333333 -9.777778 0
v -4.888889 -9.777778 0
v -5.333333 -10.22222 0
v -5.777778 -10.22222 0
v -5.777778 -9.777778 0
v -5.333333 -9.777778 0
v -5.777778 -10.22222 0
v -6.222222 -10.22222 0
v -6.222222 -9.777778 0
v -5.777778 -9.777778 0
v -6.222222 -10.22222 0
v -6.666667 -10.22222 0
v -6.666667 -9.777778 0
v -6.222222 -9.777778 0
v -6.666667 -10.22222 0
v -7.111111 -10.22222 0
v -7.111111 -9.777778 0
v -6.666667 -9.777778 0
v -7.111111 -10.22222 0
v -7.555556 -10.22222 0
v -7.555556 -9.777778 0
v -7.111111 -9.777778 0
v -7.555556 -10.22222 0
v -8 -10.22222 0
v -8 -9.777778 0
v -7.555556 -9.777778 0
v -8 -10.22222 0
v -8.444445 -10.22222 0
v -8.444445 -9.777778 0
v -8 -9.777778 0
v -8.444445 -10.22222 0
v -8.888889 -10.22222 0
v -8.888889 -9.777778 0
v -8.444445 -9.777778 0
v -8.888889 -10.22222 0
v -9.333333 -10.22222 0
v -9.333333 -9.777778 0
v -8.888889 -9.777778 0
v -9.333333 -10.22222 0
v -9.777778 -10.22222 0
v -9.777778 -9.777778 0
v -9.333333 -9.777778 0
v -9.777778 -10.22222 0
v -10.22222 -10.22222 0
v -10.22222 -9.777778 0
v -9.777778 -9.777778 0
v -10.22222 -10.22222 0
v -10.66667 -10.22222 0
v -10.66667 -9.777778 0
v -10.22222 -9.777778 0
v -10.66667 -10.22222 0
v -11.11111 -10.22222 0
v -11.11111 -9.777778 0
v -10.66667 -9.777778 0
v -11.11111 -10.22222 0
v -11.55556 -10.22222 0
v -11.55556 -9.777778 0
v -11.11111 -9.777778 0
v -11.55556 -10.22222 0
v -12 -10.22222 0
v -12 -9.777778 0
v -11.55556 -9.777778 0
v -12 -10.22222 0
v -12.44444 -10.22222 0
v -12.44444 -9.777778 0
v -12 -9.777778 0
v -12.44444 -10.22222 0
v -12.88889 -10.22222 0
v -12.88889 -9.777778 0
v -12.44444 -9.777778 0
v -12.88889 -10.22222 0
v -13.33333 -10.22222 0
v -13.33333 -9.777778 0
v -12.88889 -9.777778 0
v -13.33333 -10.22222 0
v -13.77778 -10.22222 0
v -13.77778 -9.777778 0
v -13.33333 -9.777778 0
v -13.77778 -10.22222 0
v -14.22222 -10.22222 0
v -14.22222 -9.777778 0
v -13.77778 -9.777778 0
v -14.22222 -10.22222 0
v -14.66667 -10.22222 0
v -14.66667 -9.777778 0
v -14.22222 -9.777778 0
v -14.66667 -10.22222 0
v -15.11111 -10.22222 0
v -15.11111 -9.777778 0
v -14.66667 -9.777778 0
v -15.11111 -10.22222 0
v -15.55556 -10.22222 0
v -15.55556 -9.777778 0
v -15.11111 -9.777778 0
v -15.55556 -10.22222 0
v -16 -10.22222 0
v -16 -9.777778 0
v -15.55556 -9.777778 0
v -16 -10.22222 0
v -16.44444 -10.22222 0
v -16.44444 -9.777778 0
v -16 -9.777778 0
v -16.44444 -10.22222 0
v -16.88889 -10.22222 0
v -16.88889 -9.777778 0
v -16.44444 -9.777778 0
v -16.88889 -10.22222 0
v -17.33333 -10.22222 0
v -17.33333 -9.777778 0
v -16.88889 -9.777778 0
v -17.33333 -10.22222 0
v -17.77778 -10.22222 0
v -17.77778 -9.777778 0
v -17.33333 -9.777778 0

# Texture cooridinates (Count = 140)
vt 0.0001220703 0.4063721
vt 0.03112793 0.4063721
vt 0.03112793 0.4373779
vt 0.0001220703 0.4373779
vt 0.03137207 0.4063721
vt 0.06237793 0.4063721
vt 0.06237793 0.4373779
vt 0.03137207 0.4373779
vt 0.06262207 0.4063721
vt 0.09362793 0.4063721
vt 0.09362793 0.4373779
vt 0.06262207 0.4373779
vt 0.0001220703 0.3751221
vt 0.03112793 0.3751221
vt 0.03112793 0.4061279
vt 0.0001220703 0.4061279
vt 0.03137207 0.3751221
vt 0.06237793 0.3751221
vt 0.06237793 0.4061279
vt 0.03137207 0.4061279
vt 0.06262207 0.3751221
vt 0.09362793 0.3751221
vt 0.09362793 0.4061279
vt 0.06262207 0.4061279
vt 0.0001220703 0.3438721
vt 0.03112793 0.3438721
vt 0.03112793 0.3748779
vt 0.0001220703 0.3748779
vt 0.03137207 0.3438721
vt 0.06237793 0.3438721
vt 0.06237793 0.3748779
vt 0.03137207 0.3748779
vt 0.06262207 0.3438721
vt 0.09362793 0.3438721
vt 0.09362793 0.3748779
vt 0.06262207 0.3748779
vt 0.09387207 0.7813721
vt 0.1248779 0.7813721
vt 0.1248779 0.8123779
vt 0.09387207 0.8123779
vt 0.7813721 0.5313721
vt 0.8123779 0.5313721
vt 0.8123779 0.5623779
vt 0.7813721 0.5623779
vt 0.8438721 0.8751221
vt 0.8748779 0.8751221
vt 0.8748779 0.9061279
vt 0.8438721 0.9061279
vt 0.0001220703 0.3126221
vt 0.03112793 0.3126221
vt 0.03112793 0.3436279
vt 0.0001220703 0.3436279
vt 0.03137207 0.3126221
vt 0.06237793 0.3126221
vt 0.06237793 0.3436279
vt 0.03137207 0.3436279
vt 0.06262207 0.3126221
vt 0.09362793 0.3126221
vt 0.09362793 0.3436279
vt 0.06262207 0.3436279
vt 0.9063721 0.8751221
vt 0.9373779 0.8751221
vt 0.9373779 0.9061279
vt 0.9063721 0.9061279
vt 0.09387207 0.7501221
vt 0.1248779 0.7501221
vt 0.1248779 0.7811279
vt 0.09387207 0.7811279
vt 0.3751221 0.8751221
vt 0.4061279 0.8751221
vt 0.4061279 0.9061279
vt 0.3751221 0.9061279
vt 0.7501221 0.3126221
vt 0.7811279 0.3126221
vt 0.7811279 0.3436279
vt 0.7501221 0.3436279
vt 0.7813721 0.3126221
vt 0.8123779 0.3126221
vt 0.8123779 0.3436279
vt 0.7813721 0.3436279
vt 0.8438721 0.8438721
vt 0.8748779 0.8438721
vt 0.8748779 0.8748779
vt 0.8438721 0.8748779
vt 0.8751221 0.8438721
vt 0.9061279 0.8438721
vt 0.9061279 0.8748779
vt 0.8751221 0.8748779
vt 0.9063721 0.8438721
vt 0.9373779 0.8438721
vt 0.9373779 0.8748779
vt 0.9063721 0.8748779
vt 0.8751221 0.3126221
vt 0.9061279 0.3126221
vt 0.9061279 0.3436279
vt 0.8751221 0.3436279
vt 0.4376221 0.8751221
vt 0.4686279 0.8751221
vt 0.4686279 0.9061279
vt 0.4376221 0.9061279
vt 0.7501221 0.2813721
vt 0.7811279 0.2813721
vt 0.7811279 0.3123779
vt 0.7501221 0.3123779
vt 0.7813721 0.2813721
vt 0.8123779 0.2813721
vt 0.8123779 0.3123779
vt 0.7813721 0.3123779
vt 0.8751221 0.2813721
vt 0.9061279 0.2813721
vt 0.9061279 0.3123779
vt 0.8751221 0.3123779
vt 0.8126221 0.3126221
vt 0.8436279 0.3126221
vt 0.8436279 0.3436279
vt 0.8126221 0.3436279
vt 0.8438721 0.3126221
vt 0.8748779 0.3126221
vt 0.8748779 0.3436279
vt 0.8438721 0.3436279
vt 0.8126221 0.2813721
vt 0.8436279 0.2813721
vt 0.8436279 0.3123779
vt 0.8126221 0.3123779
vt 0.8438721 0.2813721
vt 0.8748779 0.2813721
vt 0.8748779 0.3123779
vt 0.8438721 0.3123779
vt 0.3751221 0.8438721
vt 0.4061279 0.8438721
vt 0.4061279 0.8748779
vt 0.3751221 0.8748779
vt 0.4063721 0.8438721
vt 0.4373779 0.8438721
vt 0.4373779 0.8748779
vt 0.4063721 0.8748779
vt 0.4376221 0.8438721
vt 0.4686279 0.8438721
vt 0.4686279 0.8748779
vt 0.4376221 0.8748779

# Normal
vn 0 0 -1

# Mesh description
g arena_mesh_0002

# Faces
f 1/1/1 2/2/1 3/3/1 4/4/1
f 5/5/1 6/6/1 7/7/1 8/8/1
f 9/9/1 10/10/1 11/11/1 12/12/1
f 13/1/1 14/2/1 15/3/1 16/4/1
f 17/5/1 18/6/1 19/7/1 20/8/1
f 21/9/1 22/10/1 23/11/1 24/12/1
f 25/13/1 26/14/1 27/15/1 28/16/1
f 29/17/1 30/18/1 31/19/1 32/20/1
f 33/21/1 34/22/1 35/23/1 36/24/1
f 37/13/1 38/14/1 39/15/1 40/16/1
f 41/17/1 42/18/1 43/19/1 44/20/1
f 45/21/1 46/22/1 47/23/1 48/24/1
f 49/25/1 50/26/1 51/27/1 52/28/1
f 53/29/1 54/30/1 55/31/1 56/32/1
f 57/33/1 58/34/1 59/35/1 60/36/1
f 61/37/1 62/38/1 63/39/1 64/40/1
f 65/25/1 66/26/1 67/27/1 68/28/1
f 69/29/1 70/30/1 71/31/1 72/32/1
f 73/33/1 74/34/1 75/35/1 76/36/1
f 77/41/1 78/42/1 79/43/1 80/44/1
f 81/41/1 82/42/1 83/43/1 84/44/1
f 85/41/1 86/42/1 87/43/1 88/44/1
f 89/41/1 90/42/1 91/43/1 92/44/1
f 93/41/1 94/42/1 95/43/1 96/44/1
f 97/41/1 98/42/1 99/43/1 100/44/1
f 101/41/1 102/42/1 103/43/1 104/44/1
f 105/41/1 106/42/1 107/43/1 108/44/1
f 109/41/1 110/42/1 111/43/1 112/44/1
f 113/41/1 114/42/1 115/43/1 116/44/1
f 117/41/1 118/42/1 119/43/1 120/44/1
f 121/45/1 122/46/1 123/47/1 124/48/1
f 125/41/1 126/42/1 127/43/1 128/44/1
f 129/49/1 130/50/1 131/51/1 132/52/1
f 133/53/1 134/54/1 135/55/1 136/56/1
f 137/57/1 138/58/1 139/59/1 140/60/1
f 141/41/1 142/42/1 143/43/1 144/44/1
f 145/61/1 146/62/1 147/63/1 148/64/1
f 149/41/1 150/42/1 151/43/1 152/44/1
f 153/41/1 154/42/1 155/43/1 156/44/1
f 157/65/1 158/66/1 159/67/1 160/68/1
f 161/41/1 162/42/1 163/43/1 164/44/1
f 165/41/1 166/42/1 167/43/1 168/44/1
f 169/45/1 170/46/1 171/47/1 172/48/1
f 173/41/1 174/42/1 175/43/1 176/44/1
f 177/49/1 178/50/1 179/51/1 180/52/1
f 181/53/1 182/54/1 183/55/1 184/56/1
f 185/57/1 186/58/1 187/59/1 188/60/1
f 189/41/1 190/42/1 191/43/1 192/44/1
f 193/61/1 194/62/1 195/63/1 196/64/1
f 197/41/1 198/42/1 199/43/1 200/44/1
f 201/41/1 202/42/1 203/43/1 204/44/1
f 205/41/1 206/42/1 207/43/1 208/44/1
f 209/41/1 210/42/1 211/43/1 212/44/1
f 213/41/1 214/42/1 215/43/1 216/44/1
f 217/41/1 218/42/1 219/43/1 220/44/1
f 221/41/1 222/42/1 223/43/1 224/44/1
f 225/41/1 226/42/1 227/43/1 228/44/1
f 229/41/1 230/42/1 231/43/1 232/44/1
f 233/41/1 234/42/1 235/43/1 236/44/1
f 237/69/1 238/70/1 239/71/1 240/72/1
f 241/73/1 242/74/1 243/75/1 244/76/1
f 245/77/1 246/78/1 247/79/1 248/80/1
f 249/81/1 250/82/1 251/83/1 252/84/1
f 253/85/1 254/86/1 255/87/1 256/88/1
f 257/85/1 258/86/1 259/87/1 260/88/1
f 261/85/1 262/86/1 263/87/1 264/88/1
f 265/85/1 266/86/1 267/87/1 268/88/1
f 269/85/1 270/86/1 271/87/1 272/88/1
f 273/89/1 274/90/1 275/91/1 276/92/1
f 277/81/1 278/82/1 279/83/1 280/84/1
f 281/85/1 282/86/1 283/87/1 284/88/1
f 285/85/1 286/86/1 287/87/1 288/88/1
f 289/85/1 290/86/1 291/87/1 292/88/1
f 293/85/1 294/86/1 295/87/1 296/88/1
f 297/85/1 298/86/1 299/87/1 300/88/1
f 301/89/1 302/90/1 303/91/1 304/92/1
f 305/93/1 306/94/1 307/95/1 308/96/1
f 309/97/1 310/98/1 311/99/1 312/100/1
f 313/69/1 314/70/1 315/71/1 316/72/1
f 317/101/1 318/102/1 319/103/1 320/104/1
f 321/105/1 322/106/1 323/107/1 324/108/1
f 325/109/1 326/110/1 327/111/1 328/112/1
f 329/97/1 330/98/1 331/99/1 332/100/1
f 333/69/1 334/70/1 335/71/1 336/72/1
f 337/97/1 338/98/1 339/99/1 340/100/1
f 341/69/1 342/70/1 343/71/1 344/72/1
f 345/97/1 346/98/1 347/99/1 348/100/1
f 349/69/1 350/70/1 351/71/1 352/72/1
f 353/97/1 354/98/1 355/99/1 356/100/1
f 357/69/1 358/70/1 359/71/1 360/72/1
f 361/97/1 362/98/1 363/99/1 364/100/1
f 365/69/1 366/70/1 367/71/1 368/72/1
f 369/97/1 370/98/1 371/99/1 372/100/1
f 373/69/1 374/70/1 375/71/1 376/72/1
f 377/97/1 378/98/1 379/99/1 380/100/1
f 381/69/1 382/70/1 383/71/1 384/72/1
f 385/97/1 386/98/1 387/99/1 388/100/1
f 389/69/1 390/70/1 391/71/1 392/72/1
f 393/97/1 394/98/1 395/99/1 396/100/1
f 397/69/1 398/70/1 399/71/1 400/72/1
f 401/97/1 402/98/1 403/99/1 404/100/1
f 405/69/1 406/70/1 407/71/1 408/72/1
f 409/97/1 410/98/1 411/99/1 412/100/1
f 413/69/1 414/70/1 415/71/1 416/72/1
f 417/97/1 418/98/1 419/99/1 420/100/1
f 421/69/1 422/70/1 423/71/1 424/72/1
f 425/97/1 426/98/1 427/99/1 428/100/1
f 429/69/1 430/70/1 431/71/1 432/72/1
f 433/97/1 434/98/1 435/99/1 436/100/1
f 437/69/1 438/70/1 439/71/1 440/72/1
f 441/97/1 442/98/1 443/99/1 444/100/1
f 445/69/1 446/70/1 447/71/1 448/72/1
f 449/93/1 450/94/1 451/95/1 452/96/1
f 453/113/1 454/114/1 455/115/1 456/116/1
f 457/117/1 458/118/1 459/119/1 460/120/1
f 461/97/1 462/98/1 463/99/1 464/100/1
f 465/69/1 466/70/1 467/71/1 468/72/1
f 469/109/1 470/110/1 471/111/1 472/112/1
f 473/121/1 474/122/1 475/123/1 476/124/1
f 477/125/1 478/126/1 479/127/1 480/128/1
f 481/97/1 482/98/1 483/99/1 484/100/1
f 485/129/1 486/130/1 487/131/1 488/132/1
f 489/133/1 490/134/1 491/135/1 492/136/1
f 493/133/1 494/134/1 495/135/1 496/136/1
f 497/133/1 498/134/1 499/135/1 500/136/1
f 501/133/1 502/134/1 503/135/1 504/136/1
f 505/133/1 506/134/1 507/135/1 508/136/1
f 509/133/1 510/134/1 511/135/1 512/136/1
f 513/133/1 514/134/1 515/135/1 516/136/1
f 517/133/1 518/134/1 519/135/1 520/136/1
f 521/133/1 522/134/1 523/135/1 524/136/1
f 525/133/1 526/134/1 527/135/1 528/136/1
f 529/133/1 530/134/1 531/135/1 532/136/1
f 533/133/1 534/134/1 535/135/1 536/136/1
f 537/133/1 538/134/1 539/135/1 540/136/1
f 541/133/1 542/134/1 543/135/1 544/136/1
f 545/133/1 546/134/1 547/135/1 548/136/1
f 549/133/1 550/134/1 551/135/1 552/136/1
f 553/133/1 554/134/1 555/135/1 556/136/1
f 557/133/1 558/134/1 559/135/1 560/136/1
f 561/133/1 562/134/1 563/135/1 564/136/1
f 565/133/1 566/134/1 567/135/1 568/136/1
f 569/133/1 570/134/1 571/135/1 572/136/1
f 573/133/1 574/134/1 575/135/1 576/136/1
f 577/133/1 578/134/1 579/135/1 580/136/1
f 581/133/1 582/134/1 583/135/1 584/136/1
f 585/133/1 586/134/1 587/135/1 588/136/1
f 589/133/1 590/134/1 591/135/1 592/136/1
f 593/133/1 594/134/1 595/135/1 596/136/1
f 597/133/1 598/134/1 599/135/1 600/136/1
f 601/133/1 602/134/1 603/135/1 604/136/1
f 605/133/1 606/134/1 607/135/1 608/136/1
f 609/133/1 610/134/1 611/135/1 612/136/1
f 613/133/1 614/134/1 615/135/1 616/136/1
f 617/133/1 618/134/1 619/135/1 620/136/1
f 621/133/1 622/134/1 623/135/1 624/136/1
f 625/133/1 626/134/1 627/135/1 628/136/1
f 629/133/1 630/134/1 631/135/1 632/136/1
f 633/133/1 634/134/1 635/135/1 636/136/1
f 637/133/1 638/134/1 639/135/1 640/136/1
f 641/137/1 642/138/1 643/139/1 644/140/1

